<svg width="365" height="37" viewBox="0 0 365 37" fill="none" xmlns="http://www.w3.org/2000/svg">
<path d="M10.3182 36H0.0909091L11.6136 1.09091H24.5682L36.0909 36H25.8636L18.2273 10.7045H17.9545L10.3182 36ZM8.40909 22.2273H27.6364V29.3182H8.40909V22.2273ZM41.8531 36V1.09091H56.9213C59.5122 1.09091 61.7793 1.5625 63.7224 2.50568C65.6656 3.44886 67.177 4.80682 68.2565 6.57955C69.3361 8.35227 69.8759 10.4773 69.8759 12.9545C69.8759 15.4545 69.319 17.5625 68.2054 19.2784C67.1031 20.9943 65.552 22.2898 63.552 23.1648C61.5634 24.0398 59.2395 24.4773 56.5804 24.4773H47.5804V17.1136H54.6713C55.7849 17.1136 56.7338 16.9773 57.5179 16.7045C58.3134 16.4205 58.9213 15.9716 59.3418 15.358C59.7736 14.7443 59.9895 13.9432 59.9895 12.9545C59.9895 11.9545 59.7736 11.142 59.3418 10.517C58.9213 9.88068 58.3134 9.41477 57.5179 9.11932C56.7338 8.8125 55.7849 8.65909 54.6713 8.65909H51.3304V36H41.8531ZM62.3077 19.9773L71.0349 36H60.7395L52.2168 19.9773H62.3077ZM98.9861 12.6136C98.8384 12.0114 98.6054 11.483 98.2872 11.0284C97.969 10.5625 97.5713 10.1705 97.094 9.85227C96.6281 9.52273 96.0827 9.27841 95.4577 9.11932C94.844 8.94886 94.1679 8.86364 93.4293 8.86364C91.8384 8.86364 90.4804 9.24432 89.3554 10.0057C88.2418 10.767 87.3895 11.8636 86.7986 13.2955C86.219 14.7273 85.9293 16.4545 85.9293 18.4773C85.9293 20.5227 86.2077 22.2727 86.7645 23.7273C87.3213 25.1818 88.1509 26.2955 89.2531 27.0682C90.3554 27.8409 91.7247 28.2273 93.3611 28.2273C94.8043 28.2273 96.0031 28.017 96.9577 27.5966C97.9236 27.1761 98.6452 26.5795 99.1224 25.8068C99.5997 25.0341 99.8384 24.125 99.8384 23.0795L101.475 23.25H93.4974V16.5H108.975V21.3409C108.975 24.5227 108.299 27.2443 106.946 29.5057C105.605 31.7557 103.753 33.483 101.389 34.6875C99.0372 35.8807 96.3384 36.4773 93.2929 36.4773C89.8952 36.4773 86.9122 35.7557 84.344 34.3125C81.7759 32.8693 79.7702 30.8125 78.327 28.142C76.8952 25.4716 76.1793 22.2955 76.1793 18.6136C76.1793 15.7273 76.6168 13.1705 77.4918 10.9432C78.3781 8.71591 79.6054 6.83523 81.1736 5.30114C82.7418 3.75568 84.5543 2.59091 86.6111 1.80682C88.6679 1.01136 90.8724 0.613635 93.2247 0.613635C95.2929 0.613635 97.2134 0.90909 98.9861 1.5C100.77 2.07954 102.344 2.90909 103.708 3.98864C105.083 5.05682 106.191 6.32386 107.032 7.78977C107.872 9.25568 108.384 10.8636 108.566 12.6136H98.9861ZM115.794 36V1.09091H140.953V8.72727H125.271V14.7273H139.657V22.3636H125.271V28.3636H140.885V36H115.794ZM178.258 1.09091V36H170.349L157.735 17.6591H157.53V36H148.053V1.09091H156.099L168.508 19.3636H168.78V1.09091H178.258ZM184.186 8.72727V1.09091H214.527V8.72727H204.027V36H194.686V8.72727H184.186Z" fill="#5BAD72"/>
<path d="M220.494 36V1.09091H235.63C238.289 1.09091 240.522 1.44886 242.329 2.16477C244.147 2.88068 245.516 3.89204 246.437 5.19886C247.369 6.50568 247.835 8.04545 247.835 9.81818C247.835 11.1023 247.551 12.2727 246.982 13.3295C246.426 14.3864 245.641 15.2727 244.63 15.9886C243.619 16.6932 242.437 17.1818 241.085 17.4545V17.7955C242.585 17.8523 243.948 18.233 245.176 18.9375C246.403 19.6307 247.38 20.5909 248.107 21.8182C248.835 23.0341 249.198 24.4659 249.198 26.1136C249.198 28.0227 248.698 29.7216 247.698 31.2102C246.71 32.6989 245.301 33.8693 243.471 34.7216C241.641 35.5739 239.46 36 236.926 36H220.494ZM229.971 28.4318H234.403C235.994 28.4318 237.187 28.1364 237.982 27.5455C238.778 26.9432 239.176 26.0568 239.176 24.8864C239.176 24.0682 238.988 23.375 238.613 22.8068C238.238 22.2386 237.704 21.8068 237.011 21.5114C236.329 21.2159 235.505 21.0682 234.539 21.0682H229.971V28.4318ZM229.971 15.2045H233.857C234.687 15.2045 235.42 15.0739 236.056 14.8125C236.693 14.5511 237.187 14.1761 237.539 13.6875C237.903 13.1875 238.085 12.5795 238.085 11.8636C238.085 10.7841 237.698 9.96023 236.926 9.39205C236.153 8.8125 235.176 8.52273 233.994 8.52273H229.971V15.2045ZM264.024 36H253.797L265.32 1.09091H278.274L289.797 36H279.57L271.934 10.7045H271.661L264.024 36ZM262.115 22.2273H281.343V29.3182H262.115V22.2273ZM325.764 1.09091V36H317.855L305.241 17.6591H305.037V36H295.559V1.09091H303.605L316.014 19.3636H316.287V1.09091H325.764ZM332.647 36V1.09091H342.124V15.2045H342.601L353.101 1.09091H364.147L352.351 16.6364L364.42 36H353.101L345.261 22.9091L342.124 27V36H332.647Z" fill="#244B30"/>
</svg>
