<svg width="16" height="16" viewBox="0 0 16 16" fill="none" xmlns="http://www.w3.org/2000/svg">
<path d="M11.5556 4.44444C11.0646 4.44444 10.6667 4.84242 10.6667 5.33333C10.6667 5.82425 11.0646 6.22222 11.5556 6.22222V4.44444ZM4.44445 6.22222C4.93536 6.22222 5.33333 5.82425 5.33333 5.33333C5.33333 4.84242 4.93536 4.44444 4.44445 4.44444V6.22222ZM7.11111 9.77778C7.11111 10.2687 7.50907 10.6667 8 10.6667C8.49093 10.6667 8.88889 10.2687 8.88889 9.77778H7.11111ZM8 0.888889L8.62853 0.260347C8.28142 -0.0867822 7.71858 -0.0867822 7.37147 0.260347L8 0.888889ZM9.59369 3.73965C9.9408 4.08678 10.5036 4.08678 10.8508 3.73965C11.1979 3.39252 11.1979 2.82971 10.8508 2.48257L9.59369 3.73965ZM5.14924 2.48257C4.80211 2.82971 4.80211 3.39252 5.14924 3.73965C5.49637 4.08678 6.05918 4.08678 6.40631 3.73965L5.14924 2.48257ZM14.2222 8.19555V12.2489H16V8.19555H14.2222ZM12.2489 14.2222H3.75111V16H12.2489V14.2222ZM1.77778 12.2489V8.19555H1.5768e-06V12.2489H1.77778ZM11.5556 6.22222H12.2489V4.44444H11.5556V6.22222ZM3.75111 6.22222H4.44445V4.44444H3.75111V6.22222ZM3.75111 14.2222C3.22997 14.2222 2.89349 14.2215 2.63753 14.2003C2.39222 14.1799 2.30155 14.1453 2.25692 14.1221L1.43741 15.6997C1.77808 15.8767 2.13317 15.9422 2.4904 15.9719C2.837 16.0007 3.25981 16 3.75111 16V14.2222ZM1.5768e-06 12.2489C1.5768e-06 12.7402 -0.00070956 13.163 0.0280727 13.5096C0.0577349 13.8668 0.123264 14.222 0.300233 14.5626L1.87786 13.7431C1.85467 13.6985 1.82012 13.6078 1.79975 13.3625C1.77849 13.1065 1.77778 12.77 1.77778 12.2489H1.5768e-06ZM2.25692 14.1221C2.09456 14.0378 1.96219 13.9054 1.87786 13.7431L0.300233 14.5626C0.553237 15.0497 0.950357 15.4468 1.43741 15.6997L2.25692 14.1221ZM14.2222 12.2489C14.2222 12.77 14.2215 13.1065 14.2003 13.3625C14.1799 13.6078 14.1453 13.6985 14.1221 13.7431L15.6997 14.5626C15.8767 14.222 15.9422 13.8668 15.9719 13.5096C16.0007 13.163 16 12.7402 16 12.2489H14.2222ZM12.2489 16C12.7402 16 13.163 16.0007 13.5096 15.9719C13.8668 15.9422 14.222 15.8767 14.5626 15.6997L13.7431 14.1221C13.6985 14.1453 13.6078 14.1799 13.3625 14.2003C13.1065 14.2215 12.77 14.2222 12.2489 14.2222V16ZM14.1221 13.7431C14.0378 13.9054 13.9054 14.0378 13.7431 14.1221L14.5626 15.6997C15.0497 15.4468 15.4468 15.0497 15.6997 14.5626L14.1221 13.7431ZM16 8.19555C16 7.70427 16.0007 7.28142 15.9719 6.93484C15.9422 6.5776 15.8767 6.22249 15.6997 5.88185L14.1221 6.70133C14.1453 6.74595 14.1799 6.83662 14.2003 7.08195C14.2215 7.33795 14.2222 7.6744 14.2222 8.19555H16ZM12.2489 6.22222C12.77 6.22222 13.1065 6.22293 13.3625 6.24418C13.6078 6.26453 13.6985 6.29911 13.7431 6.32231L14.5626 4.74467C14.222 4.56771 13.8668 4.50218 13.5096 4.47251C13.163 4.44373 12.7402 4.44444 12.2489 4.44444V6.22222ZM15.6997 5.88185C15.4468 5.3948 15.0497 4.99768 14.5626 4.74467L13.7431 6.32231C13.9054 6.40667 14.0378 6.53902 14.1221 6.70133L15.6997 5.88185ZM1.77778 8.19555C1.77778 7.6744 1.77849 7.33795 1.79975 7.08195C1.82012 6.83662 1.85467 6.74595 1.87786 6.70133L0.300233 5.88185C0.123264 6.22249 0.0577349 6.5776 0.0280727 6.93484C-0.00070956 7.28142 1.5768e-06 7.70427 1.5768e-06 8.19555H1.77778ZM3.75111 4.44444C3.25981 4.44444 2.837 4.44373 2.4904 4.47251C2.13317 4.50218 1.77808 4.56771 1.43741 4.74467L2.25692 6.32231C2.30155 6.29911 2.39222 6.26453 2.63753 6.24418C2.89349 6.22293 3.22997 6.22222 3.75111 6.22222V4.44444ZM1.87786 6.70133C1.96219 6.53902 2.09456 6.40667 2.25692 6.32231L1.43741 4.74467C0.950357 4.99768 0.553237 5.3948 0.300233 5.88185L1.87786 6.70133ZM8.88889 9.77778V0.888889H7.11111V9.77778H8.88889ZM7.37147 1.51743L9.59369 3.73965L10.8508 2.48257L8.62853 0.260347L7.37147 1.51743ZM7.37147 0.260347L5.14924 2.48257L6.40631 3.73965L8.62853 1.51743L7.37147 0.260347Z" fill="white"/>
</svg>
