<svg width="16" height="16" viewBox="0 0 16 16" fill="none" xmlns="http://www.w3.org/2000/svg">
<path fill-rule="evenodd" clip-rule="evenodd" d="M5.88587 13.3333C5.61131 14.1101 4.87049 14.6667 3.99967 14.6667C2.8951 14.6667 1.99967 13.7712 1.99967 12.6667C1.99967 11.5621 2.8951 10.6667 3.99967 10.6667C4.87049 10.6667 5.61131 11.2232 5.88587 12H11.6663C12.5868 12 13.333 11.2538 13.333 10.3333C13.333 9.41287 12.5868 8.66668 11.6663 8.66668H4.33301C2.67615 8.66668 1.33301 7.32353 1.33301 5.66668C1.33301 4.00982 2.67615 2.66668 4.33301 2.66668H6.3902L5.52827 1.80475L6.47108 0.861938L8.94248 3.33334L6.47108 5.80475L5.52827 4.86194L6.3902 4.00001H4.33301C3.41253 4.00001 2.66634 4.7462 2.66634 5.66668C2.66634 6.58715 3.41253 7.33334 4.33301 7.33334H11.6663C13.3232 7.33334 14.6663 8.67649 14.6663 10.3333C14.6663 11.9902 13.3232 13.3333 11.6663 13.3333H5.88587ZM3.99967 12C3.63148 12 3.33301 12.2985 3.33301 12.6667C3.33301 13.0349 3.63148 13.3333 3.99967 13.3333C4.36786 13.3333 4.66634 13.0349 4.66634 12.6667C4.66634 12.2985 4.36786 12 3.99967 12ZM11.9997 1.33334C13.1042 1.33334 13.9997 2.22877 13.9997 3.33334C13.9997 4.43791 13.1042 5.33334 11.9997 5.33334C10.8951 5.33334 9.99967 4.43791 9.99967 3.33334C9.99967 2.22877 10.8951 1.33334 11.9997 1.33334ZM11.9997 2.66668C11.6315 2.66668 11.333 2.96515 11.333 3.33334C11.333 3.70153 11.6315 4.00001 11.9997 4.00001C12.3679 4.00001 12.6663 3.70153 12.6663 3.33334C12.6663 2.96515 12.3679 2.66668 11.9997 2.66668Z" fill="white"/>
</svg>
