<svg width="14" height="14" viewBox="0 0 14 14" fill="none" xmlns="http://www.w3.org/2000/svg">
<path fill-rule="evenodd" clip-rule="evenodd" d="M6.99967 13.6667C3.85697 13.6667 2.28563 13.6667 1.30932 12.6904C0.333008 11.7141 0.333008 10.1427 0.333008 7.00004C0.333008 3.85734 0.333008 2.28599 1.30932 1.30969C2.28563 0.333374 3.85697 0.333374 6.99967 0.333374C10.1423 0.333374 11.7137 0.333374 12.69 1.30969C13.6663 2.28599 13.6663 3.85734 13.6663 7.00004C13.6663 10.1427 13.6663 11.7141 12.69 12.6904C11.7137 13.6667 10.1423 13.6667 6.99967 13.6667ZM5.13167 3.83337H5.20103C5.80001 3.83335 6.29947 3.83334 6.69601 3.88665C7.11454 3.94292 7.49241 4.0667 7.79601 4.37035C8.09967 4.67399 8.22347 5.05186 8.27974 5.47039C8.33307 5.86691 8.33301 6.36637 8.33301 6.96537V7.00004C8.33301 7.27617 8.10914 7.50004 7.83301 7.50004C7.55687 7.50004 7.33301 7.27617 7.33301 7.00004C7.33301 6.35737 7.33194 5.92564 7.28867 5.60364C7.24727 5.29599 7.17581 5.16433 7.08894 5.07745C7.00207 4.99057 6.87041 4.91909 6.56274 4.87773C6.24074 4.83444 5.80901 4.83337 5.16634 4.83337C4.52367 4.83337 4.09196 4.83444 3.76993 4.87773C3.46229 4.91909 3.33063 4.99057 3.24375 5.07745C3.15687 5.16433 3.08539 5.29599 3.04403 5.60364C3.00074 5.92564 2.99967 6.35737 2.99967 7.00004C2.99967 7.64271 3.00074 8.07444 3.04403 8.39644C3.08539 8.70411 3.15687 8.83577 3.24375 8.92264C3.33063 9.00951 3.46229 9.08097 3.76993 9.12237C4.09196 9.16564 4.52367 9.16671 5.16634 9.16671C5.44249 9.16671 5.66634 9.39057 5.66634 9.66671C5.66634 9.94284 5.44249 10.1667 5.16634 10.1667H5.13166C4.53268 10.1667 4.03321 10.1668 3.63669 10.1134C3.21816 10.0572 2.84029 9.93337 2.53665 9.62971C2.233 9.32611 2.10922 8.94824 2.05295 8.52971C1.99964 8.13317 1.99965 7.63371 1.99967 7.03471V6.96537C1.99965 6.36637 1.99964 5.86691 2.05295 5.47039C2.10922 5.05186 2.233 4.67399 2.53665 4.37035C2.84029 4.0667 3.21816 3.94292 3.63669 3.88665C4.0332 3.83334 4.5327 3.83335 5.13167 3.83337ZM10.2294 4.87773C9.90741 4.83444 9.47567 4.83337 8.83301 4.83337C8.55687 4.83337 8.33301 4.60952 8.33301 4.33337C8.33301 4.05723 8.55687 3.83337 8.83301 3.83337H8.86767C9.46667 3.83335 9.96614 3.83334 10.3627 3.88665C10.7812 3.94292 11.1591 4.0667 11.4627 4.37035C11.7663 4.67399 11.8901 5.05186 11.9464 5.47039C11.9997 5.86691 11.9997 6.36637 11.9997 6.96531V7.03471C11.9997 7.63371 11.9997 8.13317 11.9464 8.52971C11.8901 8.94824 11.7663 9.32611 11.4627 9.62971C11.1591 9.93337 10.7812 10.0572 10.3627 10.1134C9.96614 10.1668 9.46667 10.1667 8.86767 10.1667H8.79834C8.19934 10.1667 7.69987 10.1668 7.30334 10.1134C6.88481 10.0572 6.50694 9.93337 6.20334 9.62971C5.89967 9.32611 5.77587 8.94824 5.71961 8.52971C5.66631 8.13317 5.66632 7.63371 5.66634 7.03471V7.00004C5.66634 6.72391 5.89021 6.50004 6.16634 6.50004C6.44247 6.50004 6.66634 6.72391 6.66634 7.00004C6.66634 7.64271 6.66741 8.07444 6.71067 8.39644C6.75207 8.70411 6.82354 8.83577 6.91041 8.92264C6.99727 9.00951 7.12894 9.08097 7.43661 9.12237C7.75861 9.16564 8.19034 9.16671 8.83301 9.16671C9.47567 9.16671 9.90741 9.16564 10.2294 9.12237C10.5371 9.08097 10.6687 9.00951 10.7556 8.92264C10.8425 8.83577 10.9139 8.70411 10.9553 8.39644C10.9986 8.07444 10.9997 7.64271 10.9997 7.00004C10.9997 6.35737 10.9986 5.92564 10.9553 5.60364C10.9139 5.29599 10.8425 5.16433 10.7556 5.07745C10.6687 4.99057 10.5371 4.91909 10.2294 4.87773Z" fill="white"/>
</svg>
